# xmcd CD database file
#
# Track frame offsets:
#	150
#	14920
#	37740
#	56435
#	75175
#	85994
#	101769
#	115725
#	132120
#	149241
#	166823
#	182752
#	201659
#	213622
#	227126
#	247557
#	257568
#	275076
#
# Disc length: 3835 seconds
#
# Revision: 1
# Processed by: cddbd v1.5.2PL0 Copyright (c) Steve Scherf et al.
# Submitted via: CDex 1.70beta2
#
DISCID=fd0ef912
DTITLE=Huckleberry Flint - A Brief and True Report Concerning
DYEAR=2004
DGENRE=Bluegrass
TTITLE0=Carrie Brown
TTITLE1=Katie Dear
TTITLE2=Battle of New Orleans
TTITLE3=Say Darlin' Say
TTITLE4=Hallelujah
TTITLE5=Blue Moon of Kentucky
TTITLE6=Washed in the Blood
TTITLE7=Lonesome Road Blues
TTITLE8=Old Home Place
TTITLE9=Farther On
TTITLE10=Whiskey Before Breakfast
TTITLE11=How Firm a Foundation
TTITLE12=Kansas City Star
TTITLE13=On and On
TTITLE14=Angel Band
TTITLE15=Settin' the Woods On Fire
TTITLE16=My Darlin' Asleep
TTITLE17=Ashokan Farewell
EXTD=YEAR: 2004
EXTT0=
EXTT1=
EXTT2=
EXTT3=
EXTT4=
EXTT5=
EXTT6=
EXTT7=
EXTT8=
EXTT9=
EXTT10=
EXTT11=
EXTT12=
EXTT13=
EXTT14=
EXTT15=
EXTT16=
EXTT17=
PLAYORDER=
